<!DOCTYPE svg PUBLIC "-//W3C//DTD SVG 20010904//EN" "http://www.w3.org/TR/2001/REC-SVG-20010904/DTD/svg10.dtd">
<svg version="1.0" xmlns="http://www.w3.org/2000/svg" width="500px" height="500px" viewBox="0 0 5000 5000" preserveAspectRatio="xMidYMid meet">
<g id="layer101" fill="#000000" stroke="none">
</g>
<g id="layer102" fill="#1d262d" stroke="none">
<path d="M3570 4147 c0 -29 147 -302 219 -407 50 -73 178 -225 241 -285 l41 -40 41 44 41 44 -40 36 c-22 20 -76 66 -120 103 -131 108 -297 302 -388 454 -19 32 -35 55 -35 51z"/>
<path d="M1554 1402 c-66 -49 -221 -220 -427 -472 -24 -29 -74 -105 -79 -121 -8 -21 148 -445 205 -559 29 -58 52 -92 75 -107 76 -50 226 -89 442 -115 159 -18 1244 -19 1415 0 314 34 464 83 518 170 33 52 227 560 227 592 0 55 -432 562 -532 625 -26 16 -27 16 -43 -9 -9 -13 -25 -80 -36 -148 -38 -240 -84 -322 -261 -464 -78 -63 -93 -84 -75 -107 7 -9 98 -46 202 -82 307 -107 495 -223 495 -308 0 -15 -41 -57 -56 -57 -5 0 -21 15 -36 34 -33 41 -141 115 -231 157 -79 37 -134 40 -324 20 -169 -17 -1051 -10 -1214 10 -126 15 -146 11 -266 -57 -89 -50 -183 -128 -183 -150 0 -18 -29 -18 -52 0 -30 23 -22 62 24 112 83 90 209 158 423 228 197 65 222 75 229 92 10 26 -11 51 -89 110 -85 64 -141 132 -184 224 -30 62 -42 112 -75 289 -9 53 -22 92 -34 103 -18 18 -19 18 -58 -10z"/>
</g>
<g id="layer103" fill="#1d3e52" stroke="none">
<path d="M3540 3817 c0 -13 99 -206 149 -291 56 -96 104 -161 216 -300 125 -154 124 -122 8 -277 -120 -162 -215 -305 -277 -419 -57 -105 -150 -296 -161 -330 -4 -14 -13 -38 -20 -55 -25 -57 -65 -175 -86 -258 -25 -97 -22 -159 12 -261 24 -68 24 -68 36 -40 7 16 12 39 13 50 0 20 87 294 122 384 22 58 214 439 266 526 92 157 193 294 339 460 35 39 63 74 63 77 0 3 -33 32 -72 64 -212 168 -390 357 -531 563 -42 63 -77 111 -77 107z"/>
</g>
<g id="layer104" fill="#005e84" stroke="none">
<path d="M3201 4180 c-2 -43 88 -343 163 -543 37 -97 103 -236 220 -462 14 -27 26 -57 26 -65 0 -9 -31 -65 -68 -125 -119 -190 -233 -421 -307 -620 -48 -127 -112 -319 -125 -375 -16 -68 -46 -140 -58 -140 -10 0 -99 195 -122 263 -15 49 -22 44 -10 -8 37 -159 151 -615 158 -634 7 -20 17 11 52 155 100 415 233 763 407 1064 31 52 178 276 222 336 l30 41 -95 143 c-172 263 -408 724 -474 930 -10 30 -19 48 -19 40z"/>
</g>
<g id="layer105" fill="#6290a0" stroke="none">
<path d="M3082 3608 c-21 -28 -42 -78 -42 -104 0 -27 0 -27 21 -8 41 37 61 74 55 99 -7 28 -18 32 -34 13z"/>
<path d="M3139 3322 c-94 -98 -146 -169 -153 -207 -4 -21 -5 -39 -3 -42 13 -12 237 240 237 267 0 10 -6 23 -13 29 -11 8 -26 -2 -68 -47z"/>
<path d="M3068 2880 c-114 -122 -138 -158 -138 -210 l0 -35 108 110 c180 183 184 189 171 219 -7 14 -18 26 -25 26 -7 0 -59 -50 -116 -110z"/>
</g>
<g id="layer106" fill="#efad2c" stroke="none">
<path d="M2241 1422 c-27 -38 -151 -299 -198 -414 -19 -48 -33 -99 -31 -115 3 -24 9 -29 43 -35 22 -4 230 -7 462 -7 l423 -1 15 24 c13 19 14 32 7 58 -15 54 -79 192 -163 353 l-77 150 -194 0 c-106 0 -209 4 -229 9 -33 7 -38 6 -58 -22z"/>
</g>
<g id="layer107" fill="#ffd241" stroke="none">
<path d="M2340 4880 c-139 -113 -376 -317 -410 -354 -22 -24 -24 -35 -22 -89 2 -34 12 -117 22 -185 l19 -123 58 -61 c73 -76 246 -252 574 -584 l256 -259 -13 -90 c-41 -265 -45 -287 -62 -293 -13 -4 -96 74 -451 423 -134 132 -250 247 -259 255 -14 13 -14 9 -7 -40 4 -30 12 -94 19 -141 l11 -86 333 -338 332 -338 -6 -51 c-10 -83 -23 -126 -40 -126 -14 0 -114 92 -359 331 -71 70 -147 142 -169 160 l-38 33 6 -54 c21 -162 149 -1034 174 -1183 26 -151 27 -152 187 -152 97 0 127 3 139 15 18 20 64 293 161 965 8 55 24 161 35 235 26 175 118 804 130 895 5 39 30 210 55 380 52 361 57 468 23 507 -28 30 -264 231 -403 341 -55 44 -103 85 -107 91 -4 6 -8 -197 -8 -450 l0 -462 29 -12 c53 -22 84 -64 89 -123 5 -65 -13 -106 -60 -135 -74 -45 -145 -36 -198 24 -26 30 -30 42 -30 94 0 52 4 64 30 93 16 19 44 40 60 47 l30 13 -1 411 c-1 226 -4 433 -8 460 l-6 49 -115 -93z"/>
</g>


</svg>